<mxfile host="app.diagrams.net" agent="Mozilla/5.0 (Windows NT 10.0; Win64; x64) AppleWebKit/537.36 (KHTML, like Gecko) Chrome/139.0.0.0 Safari/537.36" version="28.2.1">
  <diagram name="第 1 页" id="NcM-KPUOSiEIslDwOv7z">
    <mxGraphModel dx="1956" dy="1013" grid="1" gridSize="10" guides="1" tooltips="1" connect="1" arrows="1" fold="1" page="0" pageScale="1" pageWidth="827" pageHeight="1169" math="0" shadow="0">
      <root>
        <mxCell id="0" />
        <mxCell id="1" parent="0" />
        <mxCell id="ZW7lrnVbHajq0xkmh-cy-1" value="" style="ellipse;shape=cloud;whiteSpace=wrap;html=1;shadow=1;" vertex="1" parent="1">
          <mxGeometry x="-430" y="-300" width="1630" height="1010" as="geometry" />
        </mxCell>
        <mxCell id="ZW7lrnVbHajq0xkmh-cy-2" value="" style="shape=rect;fillColor=#0F62FE;aspect=fixed;resizable=0;labelPosition=center;verticalLabelPosition=bottom;align=center;verticalAlign=top;strokeColor=none;fontSize=14;" vertex="1" parent="1">
          <mxGeometry x="1360" y="-80" width="48" height="48" as="geometry" />
        </mxCell>
        <mxCell id="ZW7lrnVbHajq0xkmh-cy-3" value="" style="fillColor=#ffffff;strokeColor=none;dashed=0;outlineConnect=0;html=1;labelPosition=center;verticalLabelPosition=bottom;verticalAlign=top;part=1;movable=0;resizable=0;rotatable=0;shape=mxgraph.ibm_cloud.database--elastic" vertex="1" parent="ZW7lrnVbHajq0xkmh-cy-2">
          <mxGeometry width="24" height="24" relative="1" as="geometry">
            <mxPoint x="12" y="12" as="offset" />
          </mxGeometry>
        </mxCell>
        <mxCell id="ZW7lrnVbHajq0xkmh-cy-5" value="" style="rounded=0;whiteSpace=wrap;html=1;" vertex="1" parent="1">
          <mxGeometry y="10" width="130" height="180" as="geometry" />
        </mxCell>
        <mxCell id="ZW7lrnVbHajq0xkmh-cy-6" value="" style="rounded=0;whiteSpace=wrap;html=1;" vertex="1" parent="1">
          <mxGeometry x="310" y="10" width="120" height="150" as="geometry" />
        </mxCell>
        <mxCell id="ZW7lrnVbHajq0xkmh-cy-7" value="" style="rounded=0;whiteSpace=wrap;html=1;" vertex="1" parent="1">
          <mxGeometry x="620" y="10" width="120" height="150" as="geometry" />
        </mxCell>
        <mxCell id="ZW7lrnVbHajq0xkmh-cy-8" value="" style="rounded=0;whiteSpace=wrap;html=1;" vertex="1" parent="1">
          <mxGeometry y="290" width="120" height="150" as="geometry" />
        </mxCell>
        <mxCell id="ZW7lrnVbHajq0xkmh-cy-9" value="" style="rounded=0;whiteSpace=wrap;html=1;" vertex="1" parent="1">
          <mxGeometry x="310" y="300" width="120" height="150" as="geometry" />
        </mxCell>
        <mxCell id="ZW7lrnVbHajq0xkmh-cy-10" value="" style="rounded=0;whiteSpace=wrap;html=1;" vertex="1" parent="1">
          <mxGeometry x="620" y="300" width="120" height="150" as="geometry" />
        </mxCell>
      </root>
    </mxGraphModel>
  </diagram>
</mxfile>
